<svg xmlns="http://www.w3.org/2000/svg" xmlns:svg="http://www.w3.org/2000/svg" xmlns:sodipodi="http://sodipodi.sourceforge.net/DTD/sodipodi-0.dtd" xmlns:inkscape="http://www.inkscape.org/namespaces/inkscape" viewBox="0 0 1512 267.9"><g><g id="svg1"><path id="path1" d="M494.6,135.3h30.8l-11-42.4-19.8,42.4ZM490.7,144.6l-38.8,82.5c-26.3,53.8-88.6,50.4-130.5,12.3l6.6-21.2c55.7,90.2,149,19.3,99.5-43.4l-72.5-85.8c-49.4-57-79.2,3.4-51.7,25.3l40.7,30.8c30,21.2,19.9,66.4-18.8,70.4-17.9,1.9-38.4-5.9-50.6-14.4l-3.3,11.4h-79.3c1.4-2.5,2.9-7.3,2.9-11l-.2-131.6c0-2.4-1.5-2.6-2.4-.6l-70,149.7-30.9-135.7c-1-3.3-3.1-.2-3.1-.2-5.2,7.1-28,39.2-32.1,44.7-3,4-4.3,6.8-6.6,13.4-1.2,3.3-26.2,104-27.4,107.9-1,3.5.4,10.8,2.3,12.7H0c.8-.7,4.9-5.4,5.8-9.1l19.7-101.6c4.4-20-1.2-40.3-1.2-40.3C12,39.8,9.4,9.1,3,4.2h20.5c.6,3.7,24.3,115.7,25.8,121.2-1.5,2.3,78.8-120.2,78.8-120.2h20.7s-10.4,9.8-12.2,12.3c-1.6,2.1-26.6,36.2-29.7,40.4l23.9,128.7,51.7-123.9h86v14c-9.4-4.7-42.2-10.5-55.1-8.8l-1.2,62.5c0,3.4,0,3.7,3.1,3.7h53.4c0,0,0,8.5,0,8.5h-57.1l-1.8,60.4c0,4.2,3,4.6,5.6,4.7,22.4.9,43.4-2.1,58.9-8.8l3.7-13.5c17.2,21,31.1,28.4,49.2,23.2,17.3-5.1,34-28.9,2.1-51.2l-31.2-22c-43.1-32.6-6.7-103,54.4-67.8-.2-61.3,77.9-91.9,133-45.1l-5.4,20.2c-48.7-79.1-137.8-14.1-96.6,42.3l58.4,76.3c13.1,16.4,15.4,28.4,15.4,28.4l68.7-131.5,34.2,142.9c1.2,4.6,3.7,9.1,5.5,10.8,0,0-19.6,0-19.7,0,0,0-18.1-67.5-18.1-67.5h-37.1ZM1512,64.6h-107.5v130.1l-94.3-130.1h-25.9c1.4,1.7,9.6,12.3,10.8,13.9,0,3.8-4.1,121.4-4.1,121.4-.2,5.5-.4,9.6-2.2,13.6h12.9v-126.1s105.9,135.4,107.8,138.1c.2-5.2,5.4-142.9,5.4-142.9,0-3.1,0-11.8,8.3-11.8h26.9l.9,132.5c-.3,5.2-.9,6.5-2,10.1,0,0,19.1,0,19.1,0-.9-3.4-1.4-5.3-1.2-10l4.6-132.6c16.1,0,26.1,0,40.6,4.3v-10.6ZM609.8,63.2l10.8,13.9-4.1,121.4c-.3,5.1-2.3,11.6-3.6,13.6-.2,0,14.2,0,14.2,0v-126s107.8,138.1,107.8,138.1l6.5-142.7c.2-3.1-1.5-10.4,6.6-10.6h24.7l1,129.2c-.1,5.4-.6,8.5-1.9,12.1,0,0,19.8,0,19.9,0-.9-3.1-1.6-6.6-1.6-11.5l4.5-129.7c15.8,0,32.8.3,46.8,5.5l-36.8,171.3c-1.9,6.8-3.8,11.8-5.8,14.5h130.5l10.9-18.9c-23.3,7.9-81.6,13-109.9,12.6-9.2-.1-9.5-4.9-8.1-10.4L879.3,6.9h-26.9c2.7,3.4,2.7,7,1.7,12.8l-9.5,43.5h-114.5v130.2l-94.3-130.2h-25.9ZM575.4,212.1s17.9,0,18.2,0c-1.1-.5-3.7-6.6-3.5-8.6l1.5-140.4h-24.2c2.8,2.8,5.6,8.2,5.6,13.1,0,0,2.4,135.8,2.4,135.8M1093.8,64.2c2.4,3,4.5,7.4,4.6,15.8l-3.5,120.1c-.6,5-1.9,9.8-3.4,11.9h20.1l7.1-143.2c50.1-13.1,72.6,64.7,6.1,76.9,4.8,5.6,70,74.3,72.9,77.5,9,9.7,33.2,18.5,38.9,20.8-11.8-7.3-29.8-26.6-32-30.3,4.6.1,72.5,0,72.5,0l6.3-13.9s-22,7.9-57.4,7.9-6.9.3-6.9-4.4v-58.9h54.2v-8.9h-54.2l1.5-64.8c36.3.2,52.7,8.3,52.7,8.3v-15.2h-77.3s4.6,4.4,4.9,15.2c0,0,1.6,132.5,1.6,133-2.1-2.9-56.4-69.4-56.4-69.4,44.8-8.5,76.8-97.3-52.4-78.4M999.8,170l-.2-106.2h-23.5c3,1.6,4.7,7.7,5.1,14.9.4,3.2,1.8,91.9,2.1,97.7,3.6,53.1,80.3,63.2,85-5.9.4-6.3,3.4-70.8,3.7-75.1.9-12.7,2.4-28.2,6.7-31.6h-17.2s-.1,103.3-.1,103.3c0,56-61.3,54.3-61.5,2.9M901.3,136h32.4l-12-44.9-20.4,44.9ZM851,212c1.6-1.6,5.1-6.6,6.8-9.5l75-147.2,34.1,144.8s4.1,10.5,6.1,11.9h-18c-1.2-4.1-19.2-68.3-19.2-68.3h-38.2s-30.3,66.4-31.2,68.3h-15.5Z"></path></g></g></svg>